<svg width="760" height="244" viewBox="0 0 760 244" fill="none" xmlns="http://www.w3.org/2000/svg">
<g clip-path="url(#clip0_216_14)">
<rect width="760" height="243" fill="white"/>
<path d="M143.707 0.0161133C133.038 0.0161133 126.823 8.24292 126.823 20.0282V27.6432V102.365V110.196C126.823 121.719 133.038 130.068 143.707 130.068C154.174 130.068 160.665 121.719 160.665 110.196V102.365V27.6432V20.0282C160.665 8.24292 154.173 0.0161133 143.707 0.0161133Z" fill="#1756C2"/>
<path d="M223.053 35.7237H215.098V30.7779C215.098 25.2286 218.331 22.891 226.883 23.8621C235.984 24.7084 238.029 18.9163 238.029 14.2889C238.029 10.7096 236.982 8.89222 234.221 5.68751C228.325 -0.160044 213.404 0.0133697 213.404 0.0133697C213.404 0.0133697 199.879 -0.610924 190.707 6.6725C181.572 13.7617 182.37 26.67 182.37 26.67V35.7216H180.907C174.837 35.7216 168.391 39.502 168.391 47.2572C168.391 55.0685 175.703 58.6484 181.572 58.6484H182.369V112.462C182.369 121.717 188.044 130.066 199.232 130.066C210.651 130.066 215.097 121.979 215.097 112.984V58.6484H223.052C227.45 58.6484 236.184 56.505 236.184 47.7101C236.184 38.5795 229.295 35.7216 223.052 35.7216" fill="#1756C2"/>
<path d="M318.495 32.7429C313.022 32.7429 308.645 35.2054 305.779 38.9373C300.514 35.2817 293.578 32.7429 285.491 32.7429C251.029 32.7429 235.761 58.6504 235.761 83.6645C235.761 110.445 254.31 131.164 285.491 131.164C292.878 131.164 299.995 128.702 305.737 124.921C308.547 128.75 312.952 131.164 318.495 131.164C329.212 131.164 335.323 122.903 335.323 111.243V52.7335C335.323 41.2735 329.212 32.7429 318.495 32.7429ZM269.232 82.3722C269.232 61.063 279.573 57.2846 286.516 57.2846C286.794 57.2846 287.14 57.2846 287.383 57.2846C295.366 57.9089 301.653 63.2293 301.653 83.2948C301.653 103.038 294.841 106.992 287.777 107.386C287.361 107.386 287.153 107.386 286.709 107.386C278.781 107.386 269.229 103.606 269.229 82.3722" fill="#1756C2"/>
<path d="M113.762 104.452C112.007 99.1804 83.5312 17.9944 82.1168 14.1647C80.5491 10.3149 79.1063 7.52642 75.6658 5.12081C69.9778 0.806246 57.7978 1.0629 57.7978 1.0629C57.7978 1.0629 45.7822 0.785436 39.9901 5.12081C36.6051 7.52781 35.1623 10.3163 33.6709 14.1647C32.2281 17.9937 3.75336 99.1811 1.7903 104.452C0.19488 109.606 -1.1855 115.919 1.7903 121.065C5.05744 125.886 10.4458 130.068 17.4101 130.068C24.4723 130.068 30.7367 127.002 33.4704 118.403C36.1341 109.606 37.5283 105.306 37.5283 105.306H57.7978H78.1768C78.1768 105.306 79.5017 109.607 82.1862 118.403C84.8706 127.004 91.287 130.068 98.1563 130.068C105.382 130.068 110.905 125.886 113.764 121.065C116.857 115.918 115.657 109.606 113.764 104.452H113.762ZM45.185 77.3433L57.7978 36.169L70.4488 77.3433H45.185Z" fill="#1756C2"/>
<path d="M715.704 227.841H0V243.29H715.704C737.666 243.29 756.061 227.146 759.419 206.234C749.576 219.392 733.561 227.841 715.704 227.841Z" fill="#EFCF00"/>
<path d="M759.967 172.939V160.557H44.3949C19.9656 160.557 0 180.539 0 204.991V217.373H715.704C740.177 217.373 759.967 197.36 759.967 172.939Z" fill="#D60F27"/>
<path d="M481.568 31.742C463.462 31.742 445.857 55.9854 439.615 65.3651C439.893 63.2286 440.357 59.9684 441.356 56.242C442.674 50.0685 443.819 41.3228 439.615 36.1689C437.153 33.1862 433.525 31.7434 428.655 31.7434C411.89 31.7434 395.325 53.131 388.243 63.5969C389.083 60.5379 390.082 56.7089 390.754 54.4968C391.85 49.3498 394.015 41.3242 390.546 36.6475C388.479 33.7619 385.073 32.4648 380.246 32.4648C372.359 32.4648 363.585 36.1689 363.217 36.1689L361.427 36.9736L363.064 37.9377C363.064 37.9377 365.478 40.3517 363.619 53.1289C360.435 75.5882 353.104 102.364 350.246 112.985C348.602 118.402 348.852 122.826 351.016 125.761C353.298 128.75 357.453 130.464 362.637 130.464C369.864 130.464 376.434 128.05 376.801 127.703L377.869 127.425L377.023 126.336C377.023 126.267 373.249 120.662 378.223 109.772C394.981 72.4938 408.53 57.6495 412.316 55.1169C413.21 54.7007 413.731 54.2013 414.376 54.2013C414.792 54.2013 415 54.4788 415 54.6868C415.416 54.895 415.486 55.8106 415.416 56.6499C414.05 69.6068 408.577 91.2441 405.055 105.713C404.299 109.022 403.487 111.713 403.057 113.975C401.767 119.517 402.197 123.817 404.299 126.675C406.394 129.04 409.779 130.407 414.571 130.407C422.084 130.407 428.728 127.646 428.999 127.597L430.366 127.043L429.346 126.12C429.346 125.773 425.718 121.042 430.81 109.514C443.197 80.8392 459.928 58.434 464.278 55.1745C465.749 54.1409 466.498 54.0092 466.942 54.0092C467.081 54.0092 467.15 54.0092 467.428 54.4253C467.774 54.7722 467.913 55.9999 467.774 57.4844C467.705 58.0393 467.219 59.822 466.831 62.4787C464.348 72.4036 459.943 92.9228 457.529 107.199C456.086 115.724 456.787 122.111 459.943 125.747C462.503 128.682 466.512 130.395 471.383 130.395C479.886 130.395 487.746 125.095 488.092 124.901L489.333 124.055L488.196 123.285C488.196 123.285 482.175 117.611 485.13 100.88C487.225 89.6626 489.93 76.7612 491.969 67.3815C492.94 62.6785 493.565 58.7732 494.085 56.6367L494.224 55.7974C495.313 50.6504 496.957 41.2521 492.503 35.9247C490.145 32.8449 486.586 31.6726 481.641 31.6726" fill="#D60F27"/>
<path d="M587.372 32.743C582.232 32.743 578.049 34.1165 575.19 36.8911C573.095 35.6009 565.958 31.7441 556.588 31.7441C551.24 31.7441 543.378 32.743 534.556 38.3339C524.761 44.4034 516.5 54.1001 509.765 67.3781C494.525 97.0952 501.83 118.798 505.659 124.126C508.995 128.752 513.614 130.84 520.279 130.84C529.706 130.84 542.24 127.136 561.359 97.0952C560.804 101.327 560.173 107.271 560.173 112.34C560.173 128.704 571.7 130.466 576.453 130.466C588.764 130.466 593.059 124.722 593.093 124.528L593.578 123.904L593.093 123.279C592.954 123.071 587.356 117.356 591.04 86.9185C594.591 57.9229 604.656 37.933 604.656 37.6881L605.141 36.8835L604.288 36.3285C603.941 36.1898 595.638 32.7493 587.383 32.7493L587.372 32.743ZM534.182 108.559C531.671 108.559 530.333 104.258 530.333 99.7561C530.333 94.8797 532.767 66.8066 544.65 52.4076C547.286 49.6052 550.422 47.8364 553.551 47.8364C561.161 47.8364 568.277 55.9848 570.039 58.0817C560.814 76.8313 547.856 96.2538 538.636 105.771C536.943 107.665 535.306 108.559 534.182 108.559Z" fill="#D60F27"/>
<path d="M681.841 31.7419C668.529 31.7419 652.547 53.7733 645.783 63.9923C646.9 59.5737 648.544 53.0588 649.807 47.0586C650.681 42.5637 650.084 39.0538 648.343 36.6954C646.054 34.115 642.28 32.7415 637.003 32.7415C629.449 32.7415 620.326 36.0433 620.001 36.1682L618.676 36.7231L619.848 37.722C619.848 37.8607 622.311 41.3498 620.792 53.6082C618.676 66.9618 610.179 100.257 606.594 113.735C604.95 119.153 605.352 123.105 607.343 125.915C610.374 130.021 616.27 130.493 620.327 130.493C627.229 130.493 634.097 128.079 634.395 127.732L635.713 127.455L634.922 126.365C634.873 126.296 631.634 121.135 635.408 111.167C645.575 85.502 656.876 70.5113 663.66 65.365C665.227 64.269 666.823 63.5962 668.39 63.5962C672.115 63.5962 674.481 67.779 674.481 67.779L675.036 68.8264L675.861 67.9801C679.413 64.4494 685.753 56.9558 688.063 50.1947C689.658 46.1437 691.725 38.9359 688.618 34.7538C687.327 32.6659 685.017 31.7433 681.834 31.7433" fill="#D60F27"/>
<path d="M758.699 43.8063C754.968 45.0965 745.796 45.9428 733.485 45.9428C732.098 45.9428 730.953 45.9428 730.183 45.9428C730.738 42.7589 732.965 33.7614 735.379 25.2308C736.898 20.0838 736.724 15.8587 734.553 13.125C732.417 10.5099 728.914 9.33765 723.593 9.33765C716.129 9.33765 705.386 12.6741 704.968 12.8684L703.372 13.3539L704.746 14.6025C708.866 18.82 704.399 39.1442 702.478 46.6989C702.27 47.1151 691.788 87.4306 691.788 106.698C691.788 122.861 700.639 130.873 717.598 130.873C725.507 130.873 737.043 128.737 744.797 122.015C748.182 119.088 749.674 114.906 748.779 110.479C748.293 107.303 746.719 104.812 746.719 104.687L746.164 103.515L745.172 104.438C745.033 104.438 741.544 107.871 734.571 110.23C731.942 111 729.875 111.527 727.739 111.527C725.498 111.527 723.611 110.604 721.843 109.113C717.916 105.083 720.448 90.6894 721.288 86.062C722.606 78.7522 725.831 65.1488 726.532 61.7429C727.752 61.7429 730.312 61.6937 733.594 61.6937C736.41 61.6937 738.817 61.7429 741.175 61.7429C755.769 62.0204 759.856 50.6791 760 44.6865V43.1882L758.699 43.8063Z" fill="#D60F27"/>
</g>
<defs>
<clipPath id="clip0_216_14">
<rect width="760" height="243.29" fill="white"/>
</clipPath>
</defs>
</svg>
