<svg width="269" height="23" viewBox="0 0 269 23" fill="none" xmlns="http://www.w3.org/2000/svg">
<path fill-rule="evenodd" clip-rule="evenodd" d="M173.562 10.811C175.346 11.3991 177.257 11.7018 179.187 11.7018V3.8147e-06L168.583 0L164.489 3.33786e-06C164.489 1.5367 164.869 3.05835 165.608 4.47807C166.346 5.89779 167.429 7.18779 168.794 8.27439C170.159 9.361 171.779 10.2229 173.562 10.811ZM179.187 3.8147e-06L168.583 0C168.583 1.1086 168.858 2.20635 169.391 3.23057C169.924 4.25479 170.705 5.18542 171.689 5.96932C172.674 6.75322 173.843 7.37505 175.129 7.79929C176.416 8.22354 177.795 8.49231 179.187 8.49231V3.8147e-06Z" fill="#4E9F3D"/>
<path fill-rule="evenodd" clip-rule="evenodd" d="M169.391 19.7694C168.858 20.7936 168.583 21.8914 168.583 23L164.489 23C164.489 21.4633 164.869 19.9417 165.608 18.5219C166.346 17.1022 167.429 15.8122 168.794 14.7256C170.159 13.639 171.779 12.7771 173.562 12.189C175.346 11.6009 177.257 11.2982 179.187 11.2982V23V14.5077C177.795 14.5077 176.416 14.7765 175.129 15.2007C173.843 15.625 172.674 16.2468 171.689 17.0307C170.705 17.8146 169.924 18.7452 169.391 19.7694Z" fill="#4E9F3D"/>
<path fill-rule="evenodd" clip-rule="evenodd" d="M158.154 10.811C159.938 11.3991 161.849 11.7018 163.779 11.7018V3.8147e-06L153.175 0L149.081 3.33786e-06C149.081 1.5367 149.461 3.05835 150.2 4.47807C150.938 5.89779 152.021 7.18779 153.386 8.27439C154.751 9.361 156.371 10.2229 158.154 10.811ZM163.779 3.8147e-06L153.175 0C153.175 1.1086 153.45 2.20635 153.983 3.23057C154.515 4.25479 155.297 5.18542 156.281 5.96932C157.266 6.75322 158.435 7.37505 159.721 7.79929C161.008 8.22354 162.387 8.44189 163.779 8.44189L163.779 3.8147e-06Z" fill="#4E9F3D"/>
<path fill-rule="evenodd" clip-rule="evenodd" d="M153.983 19.7694C153.45 20.7936 153.175 21.8914 153.175 23L149.081 23C149.081 21.4633 149.461 19.9417 150.2 18.5219C150.938 17.1022 152.021 15.8122 153.386 14.7256C154.751 13.639 156.371 12.7771 158.154 12.189C159.938 11.6009 161.849 11.2982 163.779 11.2982V23L163.779 14.5581C162.387 14.5581 161.008 14.7765 159.721 15.2007C158.435 15.625 157.266 16.2468 156.281 17.0307C155.297 17.8146 154.515 18.7452 153.983 19.7694Z" fill="#4E9F3D"/>
<path fill-rule="evenodd" clip-rule="evenodd" d="M148.574 8.44189V0H137.97L133.875 3.33786e-06C133.875 1.5367 134.256 3.05835 134.994 4.47807C135.733 5.89779 136.816 7.18779 138.181 8.27439C139.545 9.361 141.166 10.2229 142.949 10.811C144.732 11.3991 146.644 11.7018 148.574 11.7018L148.574 8.44189ZM148.574 8.44189V0H137.97C137.97 1.1086 138.244 2.20635 138.777 3.23057C139.31 4.25479 140.091 5.18542 141.076 5.96932C142.061 6.75322 143.23 7.37505 144.516 7.79929C145.803 8.22353 147.181 8.44189 148.574 8.44189Z" fill="#4E9F3D"/>
<path fill-rule="evenodd" clip-rule="evenodd" d="M138.777 19.7694C138.244 20.7936 137.97 21.8914 137.97 23L133.875 23C133.875 21.4633 134.256 19.9417 134.994 18.5219C135.733 17.1022 136.816 15.8122 138.181 14.7256C139.545 13.639 141.166 12.7771 142.949 12.189C144.732 11.6009 146.644 11.2982 148.574 11.2982V14.5581C147.181 14.5581 145.803 14.7765 144.516 15.2007C143.23 15.625 142.061 16.2468 141.076 17.0307C140.091 17.8146 139.31 18.7452 138.777 19.7694Z" fill="#4E9F3D"/>
<path fill-rule="evenodd" clip-rule="evenodd" d="M125.309 12.189C123.525 11.6009 121.614 11.2982 119.684 11.2982V23L130.288 23L134.382 23C134.382 21.4633 134.002 19.9417 133.264 18.5219C132.525 17.1022 131.442 15.8122 130.077 14.7256C128.712 13.639 127.092 12.7771 125.309 12.189ZM119.684 23L130.288 23C130.288 21.8914 130.013 20.7936 129.481 19.7694C128.948 18.7452 128.167 17.8146 127.182 17.0307C126.197 16.2468 125.028 15.625 123.742 15.2007C122.455 14.7765 121.076 14.5581 119.684 14.5581L119.684 23Z" fill="#4E9F3D"/>
<path fill-rule="evenodd" clip-rule="evenodd" d="M129.481 3.23057C130.013 2.20635 130.288 1.1086 130.288 0L134.382 3.8147e-06C134.382 1.5367 134.002 3.05835 133.264 4.47807C132.525 5.89779 131.442 7.18779 130.077 8.27439C128.712 9.361 127.092 10.2229 125.309 10.811C123.525 11.3991 121.614 11.7018 119.684 11.7018V3.8147e-06L119.684 8.44189C121.076 8.44189 122.455 8.22354 123.742 7.79929C125.028 7.37505 126.197 6.75322 127.182 5.96932C128.167 5.18542 128.948 4.25479 129.481 3.23057Z" fill="#4E9F3D"/>
<path fill-rule="evenodd" clip-rule="evenodd" d="M110.103 12.189C108.32 11.6009 106.409 11.2982 104.479 11.2982V23L115.082 23L119.177 23C119.177 21.4633 118.797 19.9417 118.058 18.5219C117.319 17.1022 116.237 15.8122 114.872 14.7256C113.507 13.639 111.887 12.7771 110.103 12.189ZM104.479 23L115.082 23C115.082 21.8914 114.808 20.7936 114.275 19.7694C113.742 18.7452 112.961 17.8146 111.977 17.0307C110.992 16.2468 109.823 15.625 108.536 15.2007C107.25 14.7765 105.871 14.5581 104.479 14.5581L104.479 23Z" fill="#4E9F3D"/>
<path fill-rule="evenodd" clip-rule="evenodd" d="M114.275 3.23057C114.808 2.20635 115.082 1.1086 115.082 0L119.177 3.8147e-06C119.177 1.5367 118.797 3.05835 118.058 4.47807C117.32 5.89779 116.237 7.18779 114.872 8.27439C113.507 9.361 111.887 10.2229 110.103 10.811C108.32 11.3991 106.409 11.7018 104.479 11.7018V3.8147e-06L104.479 8.44189C105.871 8.44189 107.25 8.22354 108.536 7.79929C109.823 7.37505 110.992 6.75322 111.977 5.96932C112.961 5.18542 113.742 4.25479 114.275 3.23057Z" fill="#4E9F3D"/>
<path fill-rule="evenodd" clip-rule="evenodd" d="M94.9994 12.189C94.0606 11.8794 93.0862 11.6489 92.0923 11.5C91.1983 11.3661 90.2886 11.2982 89.3746 11.2982V23L99.9784 23L104.073 23C104.073 21.4633 103.693 19.9417 102.954 18.5219C102.216 17.1022 101.133 15.8122 99.768 14.7256C98.4031 13.639 96.7827 12.7771 94.9994 12.189ZM89.3746 23L99.9784 23C99.9784 21.8914 99.7041 20.7936 99.1712 19.7694C98.6383 18.7452 97.8573 17.8146 96.8726 17.0307C95.888 16.2468 94.719 15.625 93.4325 15.2007C92.146 14.7765 90.7671 14.5077 89.3746 14.5077V23Z" fill="#4E9F3D"/>
<path fill-rule="evenodd" clip-rule="evenodd" d="M99.1712 3.23057C99.7041 2.20635 99.9784 1.1086 99.9784 0L104.073 3.8147e-06C104.073 1.5367 103.693 3.05835 102.954 4.47807C102.216 5.89779 101.133 7.18779 99.768 8.27439C98.4031 9.361 96.7827 10.2229 94.9994 10.811C94.0606 11.1206 93.0862 11.3511 92.0923 11.5C91.1983 11.6339 90.2886 11.7018 89.3746 11.7018V3.8147e-06V8.49231C90.7671 8.49231 92.146 8.22354 93.4325 7.79929C94.719 7.37505 95.888 6.75322 96.8726 5.96932C97.8573 5.18542 98.6383 4.25479 99.1712 3.23057Z" fill="#4E9F3D"/>
<path d="M179.187 8.49231H265.276C267.333 8.49231 269 9.8389 269 11.5C269 13.1611 267.333 14.5077 265.276 14.5077H179.187V8.49231Z" fill="#4E9F3D"/>
<path d="M89.3746 14.5077H3.72394C1.66727 14.5077 0 13.1611 0 11.5C0 9.8389 1.66727 8.49231 3.72394 8.49231H89.3746V14.5077Z" fill="#4E9F3D"/>
</svg>
