<svg width="760" height="247" viewBox="0 0 760 247" fill="none" xmlns="http://www.w3.org/2000/svg">
<g clip-path="url(#clip0_216_2)">
<path fill-rule="evenodd" clip-rule="evenodd" d="M0 20C0 8.9543 8.95431 0 20 0H740C751.046 0 760 8.95431 760 20V227C760 238.046 751.046 247 740 247H20C8.95432 247 0 238.046 0 227V20Z" fill="white"/>
<path fill-rule="evenodd" clip-rule="evenodd" d="M18.2629 -0.255127H741.438C751.605 -0.255127 759.92 8.17322 759.92 18.5291V76.5071H669.438C664.675 24.0094 426.338 12.822 385.142 12.4819C318.735 11.9905 90.0739 27.6378 90.0739 75.4866V76.5071H-0.218994V18.5291C-0.218994 8.17322 8.09597 -0.255127 18.2629 -0.255127Z" fill="#FF0000"/>
<path fill-rule="evenodd" clip-rule="evenodd" d="M89.9983 162.34H-0.218994V84.4062H90.0361C89.9605 108.822 89.6204 138.756 89.9983 162.34ZM759.92 84.4062V162.34H669.627C670.345 138 668.757 108.973 669.324 84.4062H759.92Z" fill="#0000FF"/>
<path fill-rule="evenodd" clip-rule="evenodd" d="M759.92 170.239V227.991C759.92 238.346 751.605 246.775 741.438 246.775H18.2629C8.09597 246.775 -0.218994 238.346 -0.218994 227.991V170.239H90.6031C101.753 217.408 289.066 235.965 382.798 236.494C435.598 236.797 655.34 219.978 668.833 170.239H759.92Z" fill="#F9CD09"/>
<path fill-rule="evenodd" clip-rule="evenodd" d="M384.008 26.2771C435.485 26.7306 655.983 49.1432 653.942 76.9606C652.241 100.318 655.718 145.597 653.942 168.954C651.901 196.016 433.935 219.676 382.647 219.26C327.315 218.768 106.515 200.476 105.608 166.46C105.003 143.064 105.608 102.964 105.608 79.5306C105.608 44.7968 327.844 25.748 384.008 26.2771ZM383.781 47.5936C330.754 47.1779 120.915 59.9905 120.915 87.0519C120.915 105.269 120.348 141.288 120.915 159.543C121.746 186.718 330.263 197.565 382.458 197.943C430.912 198.283 636.745 182.561 638.672 161.471C640.335 143.291 637.047 103.909 638.672 85.7291C640.562 64.0346 432.386 47.9716 383.781 47.5936Z" fill="#E6252D"/>
<path fill-rule="evenodd" clip-rule="evenodd" d="M296.172 125.792C298.855 127.002 298.364 133.54 295 140.381C291.674 147.184 286.723 151.758 284.002 150.548C281.318 149.339 281.809 142.762 285.173 135.921C288.499 129.118 293.45 124.545 296.172 125.792ZM479.592 126.359C482.313 127.569 481.784 134.145 478.458 140.986C475.132 147.789 470.181 152.362 467.46 151.115C464.776 149.906 465.268 143.367 468.631 136.526C471.957 129.723 476.909 125.15 479.592 126.359ZM569.658 124.432C571.132 125.565 569.809 129.836 566.672 133.994C563.573 138.113 559.794 140.57 558.32 139.436C556.846 138.34 558.168 134.032 561.305 129.912C564.442 125.792 568.184 123.336 569.658 124.432ZM571.548 115.625C561.268 114.832 554.389 121.975 550.761 129.043C547.888 134.636 547.057 142.649 549.098 149.376C546.112 151.758 542.408 153.836 536.512 155.008C533.602 155.613 531.976 153.383 532.014 151.38C532.09 145.521 532.732 140.608 534.395 135.128C535.076 132.86 537.419 133.654 538.213 131.726C539.876 127.758 540.065 123.902 534.811 124.545C531.447 124.923 527.781 125.452 527.668 120.879C527.554 116.419 532.959 114.076 532.165 113.66C529.179 112.224 526.647 113.66 523.51 112.564C522.603 112.224 523.321 110.221 522.452 109.956C521.242 109.54 519.126 110.787 518.446 111.846C516.934 114.189 517.047 116.306 515.951 119.065C515.006 121.37 514.893 123.94 514.364 126.359C512.739 131.159 502.383 145.975 494.748 149.868C490.477 152.022 487.756 150.132 489.079 145.635C490.855 139.663 496.751 125.15 500.568 114.907C496.827 114.983 493.501 115.285 489.759 115.361C489.343 116.684 488.701 117.553 488.247 118.838C479.894 113.509 474.792 115.55 467.195 121.03C461.526 125.074 456.575 131.235 453.929 138.605C452.833 141.515 452.266 144.501 452.191 147.26C447.58 148.961 442.968 151.417 438.849 150.813C437.828 150.662 437.148 149.112 437.375 148.129C438.773 142.158 441.683 136.639 443.498 130.819C444.594 127.115 446.861 123.373 446.181 119.594C445.236 114.491 438.735 114.34 435.183 116.192C432.197 117.742 429.891 120.463 426.905 122.013C426.301 122.353 425.431 121.975 424.94 121.521C423.655 120.387 423.05 118.573 421.765 117.402C420.631 116.343 419.384 115.247 417.872 114.945C416.02 114.567 413.98 114.718 412.241 115.436C408.575 116.986 405.967 121.143 401.998 121.521C400.298 121.71 401.394 118.006 400.298 116.646C397.652 113.471 395.12 114.567 392.02 115.928C385.633 118.724 379.283 121.673 372.934 124.545C373.576 125.83 374.105 127.153 374.521 128.551C377.054 127.682 379.699 126.548 382.269 125.943C383.441 125.641 384.877 125.036 385.898 125.679C386.843 126.284 387.22 127.795 386.88 128.854C383.403 140.041 378.754 150.813 374.71 161.773C378.905 161.698 383.139 161.622 387.372 161.547C391.189 151.72 393.872 141.326 398.824 132.028C399.731 130.365 402.339 129.723 404.191 130.063C405.476 130.328 405.929 132.217 406.156 133.502C406.458 135.09 406.194 136.828 405.665 138.378C403.019 146.239 399.655 153.836 396.631 161.547C401.28 161.471 406.156 161.887 410.805 161.773C415.265 151.531 417.041 141.024 422.521 131.31C423.202 130.101 426.792 129.685 428.115 130.063C429.022 130.328 430.005 131.348 429.816 132.255C428.644 137.736 425.62 142.687 424.222 148.129C423.58 150.662 423.013 153.421 423.731 155.915C424.335 158.032 425.923 160.073 427.888 161.055C429.551 161.887 431.743 161.547 433.482 160.828C440.058 158.107 446.143 154.328 452.417 151.002C453.513 158.069 458.578 162.907 468.254 160.753C471.617 159.997 473.469 157.805 476.568 156.331C478.156 161.395 481.633 163.436 487.265 161.131C501.135 155.462 509.224 145.559 519.504 130.743C521.129 131.121 524.379 130.176 526.042 130.176C524.266 135.543 513.343 154.592 524.795 160.337C527.97 161.924 530.389 161.395 533.904 160.753C541.803 159.317 546.679 155.953 550.458 152.854C552.386 156.595 555.485 159.619 559.945 160.98C569.016 163.776 579.409 158.976 585.91 156.104C589.387 162.076 598.269 163.172 603.485 161.282C609.003 159.279 613.954 155.764 618.376 151.909C619.283 151.077 619.17 149.036 618.263 148.243C617.394 147.487 615.957 148.847 615.05 149.528C611.271 152.362 603.674 159.506 599.365 153.496C597.438 150.813 598.723 146.239 600.613 141.099C602.465 136.073 604.279 129.572 606.093 124.545C608.663 124.356 611.573 124.621 614.181 124.394C615.277 121.257 615.768 118.762 616.902 115.587C615.126 115.474 612.745 115.625 611.006 115.512C612.631 107.084 616.109 98.504 619.057 90.0379C615.05 90.1135 611.724 90.378 607.756 90.4536C604.959 98.6552 602.767 106.668 598.987 114.869C596.379 114.945 593.62 115.21 591.013 115.285C590.332 118.347 589.652 121.408 588.934 124.469C590.937 124.394 593.734 124.318 595.699 124.243C593.205 133.843 590.446 142.536 584.814 149.981C582.811 152.627 579.334 154.139 576.083 154.819C566.143 156.822 562.288 153.61 560.739 149.112C564.934 145.597 569.091 143.896 572.909 139.965C578.994 133.578 586.477 116.759 571.548 115.625ZM225.57 78.1702C209.772 79.9843 186.339 81.7229 172.959 90.5292C165.098 95.7072 158.03 105.647 165.098 115.776C172.014 125.679 184.335 121.484 189.324 114.907C183.617 114.151 179.044 113.093 178.704 109.011C177.079 90.4158 194.049 94.271 210.376 88.9418C201.91 108.973 194.276 144.652 172.732 149.036C157.047 152.249 149.828 145.332 146.2 135.581C137.507 152.287 149.904 159.921 161.054 161.66C171.372 163.247 184.6 156.784 191.857 149.187C197.035 145.824 202.175 141.969 206.861 137.622C208.109 136.488 225.268 123.336 223.68 134.221C222.282 143.821 218.502 150.813 215.63 160.073C219.863 160.148 224.096 160.262 228.329 160.337C231.428 151.153 233.696 141.628 237.589 132.747C238.269 131.197 240.083 130.063 241.746 129.836C243.296 129.61 245.564 130.063 246.131 131.537C247.151 134.107 245.715 137.395 244.997 140.041C243.787 144.425 237.211 158.599 245.753 159.695C254.143 160.753 263.592 154.743 268.581 150.699C269.261 154.932 271.491 158.636 275.951 160.753C279.013 162.189 282.792 161.244 286.118 160.488C288.764 159.884 290.994 157.994 293.413 156.709C292.997 162.832 298.855 162.113 302.748 160.262C311.592 156.066 316.543 153.118 322.591 151.077C321.948 150.019 321.419 148.885 320.928 147.713C316.581 148.81 312.31 150.926 307.85 150.586C306.339 150.473 305.961 147.751 306.414 146.315C312.65 127.569 320.587 109.465 327.693 91.0206C323.989 91.2473 321.154 91.2473 317.45 91.5119C314.54 99.3733 310.761 107.499 307.85 115.361C293.942 112.828 280.978 116.721 271.907 134.032C269.98 137.736 268.619 142.082 268.354 146.239C265.217 148.28 262.269 150.397 258.565 151.342C257.205 151.682 256.146 149.528 256.373 148.129C257.205 143.48 258.792 139.021 260.38 134.523C261.438 131.499 265.406 122.58 263.932 119.594C261.4 114.378 257.696 114.416 253.917 115.965C249.079 117.931 244.128 122.428 241.52 121.521C237.627 120.199 238.723 114.227 232.902 114.907C231.088 115.134 229.198 115.852 227.611 116.646C219.296 120.765 211.435 126.624 203.498 131.65C211.132 117.024 218.313 97.5213 225.57 78.1702Z" fill="#0000FF"/>
<path d="M347.309 108.482C355.17 108.482 362.276 111.695 367.454 116.835C372.594 122.013 375.806 129.118 375.806 136.942V136.98C375.806 144.803 372.594 151.947 367.454 157.087C362.276 162.265 355.17 165.477 347.346 165.477H347.309C339.485 165.477 332.342 162.265 327.202 157.087C322.024 151.947 318.811 144.803 318.811 136.98C318.811 129.118 322.024 121.975 327.202 116.835C332.342 111.695 339.447 108.482 347.309 108.482ZM347.309 111.959C340.43 111.959 334.156 114.756 329.658 119.291C325.123 123.827 322.288 130.063 322.288 136.98C322.288 143.858 325.123 150.132 329.658 154.63C334.156 159.165 340.43 162 347.309 162H347.346C354.225 162 360.461 159.165 364.997 154.63C369.532 150.132 372.329 143.858 372.329 136.98V136.942C372.329 130.063 369.532 123.827 364.997 119.291C360.461 114.756 354.225 111.959 347.309 111.959Z" fill="#FF0000"/>
<path fill-rule="evenodd" clip-rule="evenodd" d="M347.308 115.398C359.214 115.398 368.852 125.074 368.852 136.98C368.852 148.885 359.214 158.523 347.308 158.523C335.403 158.523 325.765 148.885 325.765 136.98C325.765 125.074 335.403 115.398 347.308 115.398ZM347.308 119.858C356.757 119.858 364.43 127.531 364.43 136.98C364.43 146.428 356.757 154.101 347.308 154.101C337.86 154.101 330.187 146.428 330.187 136.98C330.187 127.531 337.86 119.858 347.308 119.858Z" fill="#FF0000"/>
<path fill-rule="evenodd" clip-rule="evenodd" d="M347.309 124.053C354.452 124.053 360.235 129.836 360.235 136.979C360.235 144.123 354.452 149.905 347.309 149.905C340.165 149.905 334.383 144.123 334.383 136.979C334.383 129.836 340.165 124.053 347.309 124.053Z" fill="#FF0000"/>
</g>
<defs>
<clipPath id="clip0_216_2">
<rect width="760" height="247" fill="white"/>
</clipPath>
</defs>
</svg>
