<svg width="109" height="165" viewBox="0 0 109 165" fill="none" xmlns="http://www.w3.org/2000/svg">
<path d="M35.1692 43.91H109C109 15.6066 86.0526 0 73.5812 0H0C0 28.3034 22.6977 43.91 35.1692 43.91Z" fill="#D8E9A8"/>
<path d="M0 129.903V165C26.1054 165 42 142.349 42 129.903V94.8056C15.8946 94.8056 0 117.457 0 129.903Z" fill="#D8E9A8"/>
<path d="M48.5 90.3148C48.5 62.6547 69.8758 48.8997 84.75 48.8997H108.75C108.75 76.5599 85.3742 90.3148 70.5 90.3148H48.5Z" fill="#D8E9A8"/>
<path d="M42 129.903V165C15.8946 165 0 142.349 0 129.903V94.8056C26.1054 94.8056 42 117.457 42 129.903Z" fill="#4E9F3D"/>
<path d="M42 69.8568C42 81.431 32.598 90.8138 21 90.8138C9.40202 90.8138 0 81.431 0 69.8568C0 58.2825 9.40202 48.8997 21 48.8997C32.598 48.8997 42 58.2825 42 69.8568Z" fill="#4E9F3D"/>
</svg>
